<?xml version="1.0" encoding="UTF-8"?>
<svg id="Layer_2" data-name="Layer 2" xmlns="http://www.w3.org/2000/svg" viewBox="0 0 65.5 34.11">
  <defs>
    <style>
      .cls-1 {
        fill: #f89521;
        stroke: #fff;
        stroke-miterlimit: 10;
        stroke-width: .5px;
      }
    </style>
  </defs>
  <g id="ICONS_PERSPECTIVE" data-name="ICONS PERSPECTIVE">
    <g>
      <path class="cls-1" d="M57.21,7.67l-3.05.04c1.3-2.16,3.76-7.56-4.17-7.46-6.18.08-11.97,2.71-17.25,7.74l-3.13.04c-2.59,2.56-6.8,6.92-11.6,12.72-4.36,5.26-7.49,9.87-9.47,13.02l27.11-.36c3.24-3.16,7.76-7.79,12.11-13.05,4.8-5.8,7.8-10.15,9.44-12.7ZM51.38,7.75l-15.95.21c2.2-1.86,6.03-4.28,11.78-4.36,5.15-.07,4.85,2.51,4.16,4.15ZM42.34,20.01s-6.34,2.32-10.88,2.38c-4.55.06-7.67-1.6-7.67-1.6l1.61-2.05s3.03,1.77,7.74,1.71c4.71-.06,10.89-2.49,10.89-2.49l-1.69,2.05Z"/>
      <path class="cls-1" d="M49.09,20.35c3.88-4.69,7.42-9.8,9.36-12.69l5.06-.07c2.46-.03,2.3,2.54-.35,5.75l-11.7,14.13c-2.65,3.21-6.8,5.83-9.26,5.86l-5.05.07c3.52-3.62,8.51-8.89,11.95-13.05Z"/>
      <path class="cls-1" d="M23.31,8.12l5.06-.07c-2.87,2.91-7.8,8.04-11.69,12.73-3.44,4.16-7.16,9.41-9.63,13.02l-5.05.07c-2.46.03-2.3-2.54.35-5.75l11.7-14.13c2.65-3.21,6.8-5.83,9.26-5.86Z"/>
    </g>
  </g>
</svg>