<?xml version="1.0" encoding="UTF-8"?>
<svg id="Layer_2" data-name="Layer 2" xmlns="http://www.w3.org/2000/svg" viewBox="0 0 67.05 28.78">
  <defs>
    <style>
      .cls-1 {
        fill: #f89521;
        stroke: #fff;
        stroke-miterlimit: 10;
        stroke-width: .5px;
      }
    </style>
  </defs>
  <g id="ICONS_PERSPECTIVE" data-name="ICONS PERSPECTIVE">
    <g>
      <path class="cls-1" d="M12.87,14.35c1.76-2.37.3-4.33-1.59-5.44,0,0,0,0-.01,0-.58-.28-1.32-.11-1.32-.11-1.45.82-5.41,3.76-6.97,5.59-1.56,1.83-1.74,2.37-2.56,4.23-.6,1.36.59,1.31,1.28,1.18,3.48-.91,7.77-2.46,11.18-5.46Z"/>
      <path class="cls-1" d="M13.83,14.45h-.05c-3.57,3.13-8.04,4.76-11.7,5.73-.29,1.7.13,3.26,1.86,4.25,2.42,1.39,4.63,3.85,19.67,3.85,6.84,0,14.43.36,18.1.19,1.07-.05,2.22-.49,2.66-1l1.32-1.55c.46-.54.01-.98-1.03-1.01-4.61-.13-14.76-.62-21.04-2.11-3.05-.04-11.08-.04-15.06,1.06l-.24-.41c4.51-1.25,13.24-1.21,16.09-1.15h23.46c.69,0,6.27-5.03,8.76-7.31-1.9-.12-6.19-.34-13.01-.47-8.41-.15-25.85-.14-29.74-.13-.01.02-.02.04-.03.06ZM43.32,21l-.74.47-7.36-1.56.74-.47,7.36,1.56Z"/>
      <path class="cls-1" d="M47.25.48c-15.04,0-21.88,2.43-26.54,3.98-3.68,1.22-6.43,2.59-8.63,3.96,2.09,1.18,3.76,3.31,1.82,5.91h.03s-.03.03-.05.04c0,0,0,0,0,.01,3.95-.06,21.77-.34,30.43-.59,7.2-.21,12.01-.61,14.04-.81,1.12-1.97,3.61-6.5,2.97-6.5h-22.38c-.35,0-1.06,0-1.99,0h-1.77s.09-.01.13-.02c-3.9-.07-9.59-.35-11.41-1.31l.94-.41c2.03,1.07,9.73,1.22,13.12,1.23,8.82-1.49,19.79-1.98,24.62-2.11,1.1-.03,2.29-.47,2.74-1.01l1.32-1.55c.44-.52.03-.95-.95-1-3.37-.18-11.58.19-18.42.19ZM54.74,7.57l-10.02,1.56.06-.47,10.02-1.56-.06.47Z"/>
    </g>
  </g>
</svg>