<?xml version="1.0" encoding="UTF-8"?>
<svg id="Layer_2" data-name="Layer 2" xmlns="http://www.w3.org/2000/svg" viewBox="0 0 63.91 30.34">
  <defs>
    <style>
      .cls-1 {
        fill: #f89521;
        stroke: #fff;
        stroke-miterlimit: 10;
        stroke-width: .5px;
      }
    </style>
  </defs>
  <g id="ICONS_PERSPECTIVE" data-name="ICONS PERSPECTIVE">
    <g>
      <path class="cls-1" d="M9.65,18.88c2.13-1.34,3.76-1.95,5.97-2.22-2.2-.33-4-.95-4.77-1.91-.1.14-.15.26-.27.41.1,0,.2,0,.3,0-.1,0-.2,0-.31,0-1.31,1.54-3.62,2.84-5.72,3.33-1.12.26-2.08.74-2.52,1.26l-1.62,1.91c1.71-.21,5.93-.89,8.95-2.79Z"/>
      <path class="cls-1" d="M19.58,16.94c-4.91,0-6.36.33-9.18,2.11-3.5,2.2-8.26,2.91-10.03,3.11-.16.3-.18.59.07.81l7.69,6.69c.65.57,2.5.57,4.11,0l10.26-3.6c1.62-.57,2.4-1.49,1.75-2.06l-.98-.86h25.3c1.5-1.24,2.55-1.33,3.65-1.61,2.17-.56,4.09-2.42,6-4.59H19.58Z"/>
      <path class="cls-1" d="M32.79.68L13.71,7.37c-.47.16-.85.37-1.17.58,1.44.15,4.35.77,4.41,3.38.04,1.71.79,1.97,5.72,1.97h38.65c1.77-2.18,3.09-4.16,1.85-4.64-.68-.27-1.75-.16-1.06-1.47h-25.27l2.44-.86c1.62-.57,2.4-1.49,1.75-2.06l-4.14-3.6c-.65-.57-2.5-.57-4.11,0Z"/>
      <path class="cls-1" d="M22.27,13.78c-5.04,0-6.31-.27-6.35-2.26-.06-2.44-2.72-2.98-3.95-3.1l-1.83,2.16c-.44.52-.29,1,.38,1.26.59.23.89.64.95,1.16h.03s0,.05,0,.08c0,.03,0,.06,0,.1-.39,2.27,3.91,3.3,8.49,3.3h38.67c.35-.41.71-.82,1.06-1.24.41-.48.82-.97,1.22-1.45H22.27Z"/>
    </g>
  </g>
</svg>