<?xml version="1.0" encoding="UTF-8"?>
<svg id="Layer_2" data-name="Layer 2" xmlns="http://www.w3.org/2000/svg" viewBox="0 0 68.38 27.1">
  <defs>
    <style>
      .cls-1 {
        fill: #f89521;
        stroke: #fff;
        stroke-miterlimit: 10;
        stroke-width: .5px;
      }
    </style>
  </defs>
  <g id="ICONS_PERSPECTIVE" data-name="ICONS PERSPECTIVE">
    <path class="cls-1" d="M49.74.47c-14.14,0-26.17,1.29-30.49,2.8-4.32,1.52-7.14,3.1-8.01,4.12l-1.33,1.57c-.34.4-.39.81.06,1.05,1.08.58,1.45,1.38.24,2.95l13.56.68-14.95.91c-1.43,1.42-2.92,2-4.87,2.55-.85.24-1.5.65-1.84,1.05l-1.33,1.57c-.86,1.01-.74,2.6,1,4.12,1.74,1.52,11.58,2.8,25.72,2.8,6.43,0,13.57.34,17.02.17,1.01-.05,2.09-.46,2.5-.94l1.24-1.46c.43-.5.01-.92-.97-.95-4.8-.14-20.45-.67-26.01-2.46h29.02c1.61,0,3.46-.65,4.15-1.45l10.19-11.98c.68-.8-.07-1.45-1.67-1.45h-29.02c8.6-1.79,25.16-2.32,30.19-2.46,1.03-.03,2.15-.44,2.58-.95l1.24-1.46c.41-.49.03-.9-.9-.94-3.17-.17-10.89.17-17.32.17Z"/>
  </g>
</svg>