<?xml version="1.0" encoding="UTF-8"?>
<svg id="Layer_2" data-name="Layer 2" xmlns="http://www.w3.org/2000/svg" viewBox="0 0 68.57 25.31">
  <defs>
    <style>
      .cls-1 {
        fill: #f89521;
        stroke: #fff;
        stroke-miterlimit: 10;
        stroke-width: .5px;
      }
    </style>
  </defs>
  <g id="ICONS_PERSPECTIVE" data-name="ICONS PERSPECTIVE">
    <g>
      <path class="cls-1" d="M.85,12.78c1.84-2.16,6.13-3.75,12.22-5.01,4.03-.84,6.23.25,6.8,1.11.62.93,3.29,1.77,1.76,3.57-1.53,1.8-5.97,3.34-8.77,4.25-2.5.81-5.34,1.25-7.45,1-4.08-.5-6.32-2.86-4.56-4.92Z"/>
      <g>
        <path class="cls-1" d="M51.17.46c-13.2,0-19.02,2.38-23.29,3.49-9.22,2.4-10.32,4.43-10.32,4.43-.32.38-.36.76.06.98,1.07.57,2.27,1.61.91,3.21l-.24.24c-1.48,1.51-4.38,2.7-6.32,3.24-.79.22-1.36.51-1.68.89,0,0-.91,1.96,2.89,4.54,1.92,1.3,4.06,3.38,17.26,3.38,6,0,12.66.32,15.88.16.94-.05,1.95-.43,2.34-.88l1.16-1.36c.4-.47.01-.86-.9-.88-4.47-.13-14.95-.63-20.13-2.3h21.22l1.23-1.45h-5.19l.05-.16c.18-.59-.69-1.46-3.84-1.46h-.44l3.35-3.94,3.4-4h.44c3.15,0,5.51-.87,6.33-1.46l.23-.16h5.19l1.06-1.25h-21.22c8.02-1.67,19.35-2.17,24.04-2.3.96-.03,2.01-.41,2.41-.88l1.16-1.36c.39-.45.03-.84-.84-.88-2.96-.16-10.16.16-16.16.16Z"/>
        <path class="cls-1" d="M50.86,19.6h.84c1.5,0,3.23-.61,3.87-1.36l9.5-11.17c.64-.75-.06-1.36-1.56-1.36h-.84l-11.81,13.89Z"/>
        <path class="cls-1" d="M49.05,9.02l-3.03,3.56-2.98,3.51c2.88.07,4.08.85,4.01,1.62h4.52l4.36-5.13,4.41-5.18h-4.52c-1.25.77-3.77,1.55-6.77,1.62Z"/>
      </g>
    </g>
  </g>
</svg>