<?xml version="1.0" encoding="UTF-8"?>
<svg id="Layer_2" data-name="Layer 2" xmlns="http://www.w3.org/2000/svg" viewBox="0 0 65.85 30.34">
  <defs>
    <style>
      .cls-1 {
        fill: #f89521;
        stroke: #fff;
        stroke-miterlimit: 10;
        stroke-width: .5px;
      }
    </style>
  </defs>
  <g id="ICONS_PERSPECTIVE" data-name="ICONS PERSPECTIVE">
    <path class="cls-1" d="M36.94.68l4.14,3.6c.65.57-.13,1.49-1.75,2.06l-2.44.86h26.79c1.61,0,2.36.65,1.67,1.45l-5.5,6.46-.1.12-5.5,6.46c-.68.8-2.54,1.45-4.15,1.45h-26.79l.98.86c.65.57-.13,1.49-1.75,2.06l-10.26,3.6c-1.62.57-3.46.57-4.11,0L.48,22.97c-.31-.27-.31-.64.02-1.03l1.85-2.18c.44-.52,1.4-1,2.52-1.26,2.1-.49,4.41-1.79,5.72-3.33.1,0,.21,0,.31,0-.09,0-.19,0-.3,0,1.31-1.54,1.21-2.84-.05-3.33-.68-.26-.83-.74-.38-1.26l1.85-2.18c.33-.39.95-.76,1.73-1.03L32.82.68c1.62-.57,3.46-.57,4.11,0Z"/>
  </g>
</svg>