<?xml version="1.0" encoding="UTF-8"?>
<svg id="Layer_2" data-name="Layer 2" xmlns="http://www.w3.org/2000/svg" viewBox="0 0 71.81 33.68">
  <defs>
    <style>
      .cls-1 {
        fill: #f7941d;
        stroke: #fff;
        stroke-miterlimit: 10;
        stroke-width: .5px;
      }
    </style>
  </defs>
  <g id="ICONS">
    <path class="cls-1" d="M40.58.72l4.42,4c.7.63-.17,1.66-1.95,2.29l-2.67.95h29.1c1.75,0,2.54.72,1.78,1.62l-6.11,7.19-.11.13-6.11,7.19c-.76.89-2.79,1.62-4.54,1.62h-29.1s1.05.95,1.05.95c.7.63-.17,1.66-1.95,2.29l-11.23,4c-1.77.63-3.77.63-4.47,0L.49,25.51c-.33-.3-.32-.71.05-1.14l2.06-2.42c.49-.58,1.55-1.11,2.77-1.4,2.29-.54,4.83-2,6.29-3.7.11,0,.22,0,.33,0-.1,0-.21,0-.32,0,1.45-1.71,1.38-3.16.01-3.7-.73-.29-.88-.82-.39-1.4l2.06-2.42c.36-.43,1.05-.84,1.9-1.14L36.11.72c1.77-.63,3.77-.63,4.47,0Z"/>
  </g>
</svg>
