<?xml version="1.0" encoding="UTF-8"?>
<svg id="Layer_2" data-name="Layer 2" xmlns="http://www.w3.org/2000/svg" viewBox="0 0 65.85 30.34">
  <defs>
    <style>
      .cls-1 {
        fill: #f89521;
        stroke: #fff;
        stroke-miterlimit: 10;
        stroke-width: .5px;
      }
    </style>
  </defs>
  <g id="ICONS_PERSPECTIVE" data-name="ICONS PERSPECTIVE">
    <g>
      <polygon class="cls-1" points="8.68 15.4 5.12 12.8 .91 17.64 1.04 17.89 8.68 15.4"/>
      <polygon class="cls-1" points="15.12 13.31 9.55 10.81 6.51 12.16 10.25 14.89 15.12 13.31"/>
      <path class="cls-1" d="M32.82.68L13.75,7.37c-.78.27-1.4.64-1.73,1.03l-1.39,1.64,6.47,2.9c.14.06.18.17.1.29,0,.01-.01.02-.02.03-.09.11-.27.21-.49.28l-4.55,1.48h14.46c.42,0,.62.17.44.38s-.66.38-1.08.38h-14.45l2.03,1.48c.1.07.1.17.01.28,0,.01-.02.02-.03.03-.12.12-.34.22-.59.29l-11.4,2.9-1,1.17c-.33.39-.34.76-.02,1.03l7.69,6.69c.65.57,2.5.57,4.11,0l10.26-3.6c1.62-.57,2.4-1.49,1.75-2.06l-.99-.86h26.79c1.61,0,3.46-.65,4.15-1.45l5.5-6.46.1-.12,5.5-6.46c.68-.8-.07-1.45-1.67-1.45h-26.79l2.44-.86c1.62-.57,2.4-1.49,1.75-2.06l-4.14-3.6c-.65-.57-2.5-.57-4.11,0ZM26.56,9.02l-3.31,3.89c-.18.21-.66.38-1.08.38s-.62-.17-.44-.38l3.31-3.89c.18-.21.66-.38,1.08-.38s.62.17.44.38Z"/>
      <polygon class="cls-1" points="9.38 15.91 1.4 18.51 2.17 19.88 11.56 17.5 9.38 15.91"/>
    </g>
  </g>
</svg>